<svg xmlns="http://www.w3.org/2000/svg" xmlns:xlink="http://www.w3.org/1999/xlink" width="1100" height="472.49"><rect width="1100" height="472.49" rx="5" ry="5" class="a"/><svg y="0%" x="0%"><circle cx="20" cy="20" r="6" fill="#ff5f58"/><circle cx="40" cy="20" r="6" fill="#ffbd2e"/><circle cx="60" cy="20" r="6" fill="#18c132"/></svg><svg height="412.49" viewBox="0 0 106 41.249" width="1060" x="15" xmlns="http://www.w3.org/2000/svg" xmlns:xlink="http://www.w3.org/1999/xlink" y="50"><style>@keyframes h{0%{transform:translateX(0)}3.6%{transform:translateX(-106px)}8.2%{transform:translateX(-212px)}10.9%{transform:translateX(-318px)}15.1%{transform:translateX(-424px)}32.9%{transform:translateX(-530px)}39.1%{transform:translateX(-636px)}47%{transform:translateX(-742px)}52.8%{transform:translateX(-848px)}56.5%{transform:translateX(-954px)}66.1%{transform:translateX(-1060px)}69.1%{transform:translateX(-1166px)}80.1%{transform:translateX(-1378px)}80.6%{transform:translateX(-1484px)}to{transform:translateX(-1590px)}}.a{fill:#282d35}.f{fill:#b9c0cb}</style><g font-size="1.67" font-family="Monaco,Consolas,Menlo,'Bitstream Vera Sans Mono','Powerline Symbols',monospace"><defs><symbol id="1"><text y="1.67" class="f">bash-3.2$</text><text x="10.02" y="1.67" class="f">seances.py</text><text x="21.042" y="1.67" class="f">P0645</text></symbol><symbol id="2"><text y="1.67" class="f">Gaumont</text><text x="8.016" y="1.67" class="f">Toulouse</text><text x="17.034" y="1.67" class="f">Labege</text><text x="24.048" y="1.67" class="f">IMAX,</text><text x="30.06" y="1.67" class="f">le</text><text x="33.066" y="1.67" class="f">27/12/2018</text></symbol><symbol id="3"><text y="1.67" class="f">┌─────────────────────────────────────────────────────────────┬──────┬───────┬───────┐</text></symbol><symbol id="4"><text y="1.67" class="f">│</text><text x="2.004" y="1.67" class="f">A</text><text x="4.008" y="1.67" class="f">Star</text><text x="9.018" y="1.67" class="f">Is</text><text x="12.024" y="1.67" class="f">Born</text><text x="17.034" y="1.67" class="f">(VOST)</text><text x="24.048" y="1.67" class="f">-</text><text x="26.052" y="1.67" class="f">02h16</text><text x="62.124" y="1.67" class="f">│</text><text x="64.128" y="1.67" class="f">4.5*</text><text x="69.138" y="1.67" class="f">│</text><text x="77.154" y="1.67" class="f">│</text><text x="79.158" y="1.67" class="f">22:15</text><text x="85.17" y="1.67" class="f">│</text></symbol><symbol id="5"><text y="1.67" class="f">│</text><text x="2.004" y="1.67" class="f">Aquaman</text><text x="10.02" y="1.67" class="f">(VF</text><text x="14.028" y="1.67" class="f">3D,</text><text x="18.036" y="1.67" class="f">Salle</text><text x="24.048" y="1.67" class="f">4DX)</text><text x="29.058" y="1.67" class="f">-</text><text x="31.062" y="1.67" class="f">02h24</text><text x="62.124" y="1.67" class="f">│</text><text x="64.128" y="1.67" class="f">4.0*</text><text x="69.138" y="1.67" class="f">│</text><text x="77.154" y="1.67" class="f">│</text><text x="79.158" y="1.67" class="f">22:00</text><text x="85.17" y="1.67" class="f">│</text></symbol><symbol id="6"><text y="1.67" class="f">│</text><text x="2.004" y="1.67" class="f">Astérix</text><text x="10.02" y="1.67" class="f">-</text><text x="12.024" y="1.67" class="f">Le</text><text x="15.03" y="1.67" class="f">Secret</text><text x="22.044" y="1.67" class="f">de</text><text x="25.05" y="1.67" class="f">la</text><text x="28.056" y="1.67" class="f">Potion</text><text x="35.07" y="1.67" class="f">Magique...</text><text x="46.092" y="1.67" class="f">(VF</text><text x="50.1" y="1.67" class="f">3D)</text><text x="54.108" y="1.67" class="f">-</text><text x="56.112" y="1.67" class="f">01h25</text><text x="62.124" y="1.67" class="f">│</text><text x="64.128" y="1.67" class="f">4.1*</text><text x="69.138" y="1.67" class="f">│</text><text x="77.154" y="1.67" class="f">│</text><text x="79.158" y="1.67" class="f">22:15</text><text x="85.17" y="1.67" class="f">│</text></symbol><symbol id="7"><text y="1.67" class="f">│</text><text x="2.004" y="1.67" class="f">Bumblebee</text><text x="12.024" y="1.67" class="f">(VF</text><text x="16.032" y="1.67" class="f">IMAX</text><text x="21.042" y="1.67" class="f">3D)</text><text x="25.05" y="1.67" class="f">-</text><text x="27.054" y="1.67" class="f">01h54</text><text x="62.124" y="1.67" class="f">│</text><text x="64.128" y="1.67" class="f">3.8*</text><text x="69.138" y="1.67" class="f">│</text><text x="71.142" y="1.67" class="f">21:50</text><text x="77.154" y="1.67" class="f">│</text><text x="85.17" y="1.67" class="f">│</text></symbol><symbol id="8"><text y="1.67" class="f">│</text><text x="2.004" y="1.67" class="f">Bumblebee</text><text x="12.024" y="1.67" class="f">(VF)</text><text x="17.034" y="1.67" class="f">-</text><text x="19.038" y="1.67" class="f">01h54</text><text x="62.124" y="1.67" class="f">│</text><text x="64.128" y="1.67" class="f">3.8*</text><text x="69.138" y="1.67" class="f">│</text><text x="77.154" y="1.67" class="f">│</text><text x="79.158" y="1.67" class="f">22:30</text><text x="85.17" y="1.67" class="f">│</text></symbol><symbol id="9"><text y="1.67" class="f">│</text><text x="2.004" y="1.67" class="f">En</text><text x="5.01" y="1.67" class="f">liberté</text><text x="13.026" y="1.67" class="f">!</text><text x="15.03" y="1.67" class="f">(VF)</text><text x="20.04" y="1.67" class="f">-</text><text x="22.044" y="1.67" class="f">01h48</text><text x="62.124" y="1.67" class="f">│</text><text x="64.128" y="1.67" class="f">3.2*</text><text x="69.138" y="1.67" class="f">│</text><text x="77.154" y="1.67" class="f">│</text><text x="79.158" y="1.67" class="f">22:25</text><text x="85.17" y="1.67" class="f">│</text></symbol><symbol id="10"><text y="1.67" class="f">│</text><text x="2.004" y="1.67" class="f">L&apos;Empereur</text><text x="13.026" y="1.67" class="f">de</text><text x="16.032" y="1.67" class="f">Paris</text><text x="22.044" y="1.67" class="f">(VF)</text><text x="27.054" y="1.67" class="f">-</text><text x="29.058" y="1.67" class="f">01h50</text><text x="62.124" y="1.67" class="f">│</text><text x="64.128" y="1.67" class="f">3.4*</text><text x="69.138" y="1.67" class="f">│</text><text x="77.154" y="1.67" class="f">│</text><text x="79.158" y="1.67" class="f">22:30</text><text x="85.17" y="1.67" class="f">│</text></symbol><symbol id="11"><text y="1.67" class="f">│</text><text x="2.004" y="1.67" class="f">L&apos;Exorcisme</text><text x="14.028" y="1.67" class="f">de</text><text x="17.034" y="1.67" class="f">Hannah</text><text x="24.048" y="1.67" class="f">Grace</text><text x="30.06" y="1.67" class="f">(VF)</text><text x="35.07" y="1.67" class="f">-</text><text x="37.074" y="1.67" class="f">01h25</text><text x="62.124" y="1.67" class="f">│</text><text x="64.128" y="1.67" class="f">2.4*</text><text x="69.138" y="1.67" class="f">│</text><text x="77.154" y="1.67" class="f">│</text><text x="79.158" y="1.67" class="f">22:45</text><text x="85.17" y="1.67" class="f">│</text></symbol><symbol id="12"><text y="1.67" class="f">│</text><text x="2.004" y="1.67" class="f">Le</text><text x="5.01" y="1.67" class="f">Gendre</text><text x="12.024" y="1.67" class="f">de</text><text x="15.03" y="1.67" class="f">ma</text><text x="18.036" y="1.67" class="f">vie</text><text x="22.044" y="1.67" class="f">(VF)</text><text x="27.054" y="1.67" class="f">-</text><text x="29.058" y="1.67" class="f">01h40</text><text x="62.124" y="1.67" class="f">│</text><text x="64.128" y="1.67" class="f">2.4*</text><text x="69.138" y="1.67" class="f">│</text><text x="77.154" y="1.67" class="f">│</text><text x="79.158" y="1.67" class="f">22:30</text><text x="85.17" y="1.67" class="f">│</text></symbol><symbol id="13"><text y="1.67" class="f">│</text><text x="2.004" y="1.67" class="f">Le</text><text x="5.01" y="1.67" class="f">Grand</text><text x="11.022" y="1.67" class="f">Bain</text><text x="16.032" y="1.67" class="f">(VF)</text><text x="21.042" y="1.67" class="f">-</text><text x="23.046" y="1.67" class="f">01h58</text><text x="62.124" y="1.67" class="f">│</text><text x="64.128" y="1.67" class="f">4.0*</text><text x="69.138" y="1.67" class="f">│</text><text x="71.142" y="1.67" class="f">21:45</text><text x="77.154" y="1.67" class="f">│</text><text x="85.17" y="1.67" class="f">│</text></symbol><symbol id="14"><text y="1.67" class="f">│</text><text x="2.004" y="1.67" class="f">Le</text><text x="5.01" y="1.67" class="f">Retour</text><text x="12.024" y="1.67" class="f">de</text><text x="15.03" y="1.67" class="f">Mary</text><text x="20.04" y="1.67" class="f">Poppins</text><text x="28.056" y="1.67" class="f">(VF)</text><text x="33.066" y="1.67" class="f">-</text><text x="35.07" y="1.67" class="f">02h11</text><text x="62.124" y="1.67" class="f">│</text><text x="64.128" y="1.67" class="f">3.5*</text><text x="69.138" y="1.67" class="f">│</text><text x="71.142" y="1.67" class="f">21:45</text><text x="77.154" y="1.67" class="f">│</text><text x="85.17" y="1.67" class="f">│</text></symbol><symbol id="15"><text y="1.67" class="f">│</text><text x="2.004" y="1.67" class="f">Mortal</text><text x="9.018" y="1.67" class="f">Engines</text><text x="17.034" y="1.67" class="f">(VF)</text><text x="22.044" y="1.67" class="f">-</text><text x="24.048" y="1.67" class="f">02h08</text><text x="62.124" y="1.67" class="f">│</text><text x="64.128" y="1.67" class="f">3.4*</text><text x="69.138" y="1.67" class="f">│</text><text x="77.154" y="1.67" class="f">│</text><text x="79.158" y="1.67" class="f">22:00</text><text x="85.17" y="1.67" class="f">│</text></symbol><symbol id="16"><text y="1.67" class="f">│</text><text x="2.004" y="1.67" class="f">Seconde</text><text x="10.02" y="1.67" class="f">chance</text><text x="17.034" y="1.67" class="f">(VF)</text><text x="22.044" y="1.67" class="f">-</text><text x="24.048" y="1.67" class="f">01h44</text><text x="62.124" y="1.67" class="f">│</text><text x="64.128" y="1.67" class="f">3.2*</text><text x="69.138" y="1.67" class="f">│</text><text x="77.154" y="1.67" class="f">│</text><text x="79.158" y="1.67" class="f">22:45</text><text x="85.17" y="1.67" class="f">│</text></symbol><symbol id="17"><text y="1.67" class="f">│</text><text x="2.004" y="1.67" class="f">Unfriended:</text><text x="14.028" y="1.67" class="f">Dark</text><text x="19.038" y="1.67" class="f">Web</text><text x="23.046" y="1.67" class="f">(VF)</text><text x="28.056" y="1.67" class="f">-</text><text x="30.06" y="1.67" class="f">01h28</text><text x="62.124" y="1.67" class="f">│</text><text x="64.128" y="1.67" class="f">3.3*</text><text x="69.138" y="1.67" class="f">│</text><text x="77.154" y="1.67" class="f">│</text><text x="79.158" y="1.67" class="f">22:45</text><text x="85.17" y="1.67" class="f">│</text></symbol><symbol id="18"><text y="1.67" class="f">└─────────────────────────────────────────────────────────────┴──────┴───────┴───────┘</text></symbol><symbol id="a"><path fill="transparent" d="M0 0h106v20H0z"/></symbol></defs><path class="a" d="M0 0h106v41.249H0z"/><g style="animation-duration:6.439095s;animation-iteration-count:infinite;animation-name:h;animation-timing-function:steps(1,end)"><svg width="1696"><svg><use xlink:href="#a"/><text y="1.67" class="f">bash-3.2$</text><text x="10.02" y="1.67" class="f">s</text></svg><svg x="106"><use xlink:href="#a"/><text y="1.67" class="f">bash-3.2$</text><text x="10.02" y="1.67" class="f">se</text></svg><svg x="212"><use xlink:href="#a"/><text y="1.67" class="f">bash-3.2$</text><text x="10.02" y="1.67" class="f">sea</text></svg><svg x="318"><use xlink:href="#a"/><text y="1.67" class="f">bash-3.2$</text><text x="10.02" y="1.67" class="f">sean</text></svg><svg x="424"><use xlink:href="#a"/><text y="1.67" class="f">bash-3.2$</text><text x="10.02" y="1.67" class="f">seances.py</text></svg><svg x="530"><use xlink:href="#a"/><text y="1.67" class="f">bash-3.2$</text><text x="10.02" y="1.67" class="f">seances.py</text><text x="21.042" y="1.67" class="f">P</text></svg><svg x="636"><use xlink:href="#a"/><text y="1.67" class="f">bash-3.2$</text><text x="10.02" y="1.67" class="f">seances.py</text><text x="21.042" y="1.67" class="f">P0</text></svg><svg x="742"><use xlink:href="#a"/><text y="1.67" class="f">bash-3.2$</text><text x="10.02" y="1.67" class="f">seances.py</text><text x="21.042" y="1.67" class="f">P06</text></svg><svg x="848"><use xlink:href="#a"/><text y="1.67" class="f">bash-3.2$</text><text x="10.02" y="1.67" class="f">seances.py</text><text x="21.042" y="1.67" class="f">P064</text></svg><svg x="954"><use xlink:href="#a"/><use xlink:href="#1"/></svg><svg x="1060"><use xlink:href="#a"/><use xlink:href="#1"/></svg><svg x="1166"><use xlink:href="#a"/><use xlink:href="#1"/></svg><svg x="1272"><use xlink:href="#a"/><use xlink:href="#1"/><use xlink:href="#2" y="4.342"/><use xlink:href="#3" y="6.513"/><use xlink:href="#4" y="8.684"/><use xlink:href="#5" y="10.855"/><use xlink:href="#6" y="13.026"/><use xlink:href="#7" y="15.197"/><use xlink:href="#8" y="17.368"/><use xlink:href="#9" y="19.539"/><use xlink:href="#10" y="21.71"/><text y="25.551" class="f">│</text><text x="2.004" y="25.551" class="f">L&apos;Exorcisme</text><text x="14.028" y="25.551" class="f">de</text><text x="17.034" y="25.551" class="f">Hannah</text><text x="24.048" y="25.551" class="f">Grace</text></svg><svg x="1378"><use xlink:href="#a"/><use xlink:href="#1"/><use xlink:href="#2" y="4.342"/><use xlink:href="#3" y="6.513"/><use xlink:href="#4" y="8.684"/><use xlink:href="#5" y="10.855"/><use xlink:href="#6" y="13.026"/><use xlink:href="#7" y="15.197"/><use xlink:href="#8" y="17.368"/><use xlink:href="#9" y="19.539"/><use xlink:href="#10" y="21.71"/><use xlink:href="#11" y="23.881"/><use xlink:href="#12" y="26.052"/><use xlink:href="#13" y="28.223"/><use xlink:href="#14" y="30.394"/><use xlink:href="#15" y="32.565"/><use xlink:href="#16" y="34.736"/><use xlink:href="#17" y="36.907"/><use xlink:href="#18" y="39.078"/></svg><svg x="1484"><use xlink:href="#a"/><use xlink:href="#1"/><use xlink:href="#2" y="4.342"/><use xlink:href="#3" y="6.513"/><use xlink:href="#4" y="8.684"/><use xlink:href="#5" y="10.855"/><use xlink:href="#6" y="13.026"/><use xlink:href="#7" y="15.197"/><use xlink:href="#8" y="17.368"/><use xlink:href="#9" y="19.539"/><use xlink:href="#10" y="21.71"/><use xlink:href="#11" y="23.881"/><use xlink:href="#12" y="26.052"/><use xlink:href="#13" y="28.223"/><use xlink:href="#14" y="30.394"/><use xlink:href="#15" y="32.565"/><use xlink:href="#16" y="34.736"/><use xlink:href="#17" y="36.907"/><use xlink:href="#18" y="39.078"/><text y="42.919" class="f">bash-3.2$</text></svg><svg x="1590"><use xlink:href="#a"/><use xlink:href="#2" y="2.171"/><use xlink:href="#3" y="4.342"/><use xlink:href="#4" y="6.513"/><use xlink:href="#5" y="8.684"/><use xlink:href="#6" y="10.855"/><use xlink:href="#7" y="13.026"/><use xlink:href="#8" y="15.197"/><use xlink:href="#9" y="17.368"/><use xlink:href="#10" y="19.539"/><use xlink:href="#11" y="21.71"/><use xlink:href="#12" y="23.881"/><use xlink:href="#13" y="26.052"/><use xlink:href="#14" y="28.223"/><use xlink:href="#15" y="30.394"/><use xlink:href="#16" y="32.565"/><use xlink:href="#17" y="34.736"/><use xlink:href="#18" y="36.907"/><text y="40.748" class="f">bash-3.2$</text><text x="10.02" y="40.748" class="f">exit</text></svg></svg></g></g></svg></svg>