<svg xmlns="http://www.w3.org/2000/svg" xmlns:xlink="http://www.w3.org/1999/xlink" width="1100" height="798.14"><rect width="1100" height="798.14" rx="5" ry="5" class="a"/><svg y="0%" x="0%"><circle cx="20" cy="20" r="6" fill="#ff5f58"/><circle cx="40" cy="20" r="6" fill="#ffbd2e"/><circle cx="60" cy="20" r="6" fill="#18c132"/></svg><svg height="738.14" viewBox="0 0 106 73.814" width="1060" x="15" xmlns="http://www.w3.org/2000/svg" xmlns:xlink="http://www.w3.org/1999/xlink" y="50"><style>@keyframes h{0%{transform:translateX(0)}1.7%{transform:translateX(-106px)}2.9%{transform:translateX(-212px)}4%{transform:translateX(-318px)}7.8%{transform:translateX(-424px)}12.7%{transform:translateX(-530px)}17.6%{transform:translateX(-636px)}19.8%{transform:translateX(-742px)}21.3%{transform:translateX(-848px)}28.9%{transform:translateX(-954px)}29.9%{transform:translateX(-1060px)}31.8%{transform:translateX(-1166px)}32.9%{transform:translateX(-1272px)}35.1%{transform:translateX(-1378px)}38.3%{transform:translateX(-1484px)}39.1%{transform:translateX(-1590px)}40.5%{transform:translateX(-1696px)}41.7%{transform:translateX(-1802px)}43.2%{transform:translateX(-1908px)}46.1%{transform:translateX(-2014px)}50%{transform:translateX(-2120px)}57.3%{transform:translateX(-2226px)}61.1%{transform:translateX(-2332px)}65%{transform:translateX(-2438px)}67.2%{transform:translateX(-2544px)}69%{transform:translateX(-2650px)}77.7%{transform:translateX(-2756px)}79.2%{transform:translateX(-2862px)}84%{transform:translateX(-3180px)}84.3%{transform:translateX(-3286px)}to{transform:translateX(-3392px)}}.a{fill:#282d35}.f{fill:#b9c0cb}</style><g font-size="1.67" font-family="Monaco,Consolas,Menlo,'Bitstream Vera Sans Mono','Powerline Symbols',monospace"><defs><symbol id="1"><text y="1.67" class="f">bash-3.2$</text><text x="10.02" y="1.67" class="f">python</text><text x="17.034" y="1.67" class="f">allocine_cli.py</text><text x="33.066" y="1.67" class="f">--id-cinema</text></symbol><symbol id="2"><text y="1.67" class="f">bash-3.2$</text><text x="10.02" y="1.67" class="f">python</text><text x="17.034" y="1.67" class="f">allocine_cli.py</text><text x="33.066" y="1.67" class="f">--id-cinema</text><text x="45.09" y="1.67" class="f">P0645</text></symbol><symbol id="3"><text y="1.67" class="f">Gaumont</text><text x="8.016" y="1.67" class="f">Toulouse</text><text x="17.034" y="1.67" class="f">Labege</text><text x="24.048" y="1.67" class="f">IMAX,</text><text x="30.06" y="1.67" class="f">le</text><text x="33.066" y="1.67" class="f">27/12/2018</text></symbol><symbol id="4"><text y="1.67" class="f">┌─────────────────────────────────────────────────────────────┬──────┬───────┬───────┬───────┐</text></symbol><symbol id="5"><text y="1.67" class="f">│</text><text x="2.004" y="1.67" class="f">A</text><text x="4.008" y="1.67" class="f">Star</text><text x="9.018" y="1.67" class="f">Is</text><text x="12.024" y="1.67" class="f">Born</text><text x="17.034" y="1.67" class="f">(VOST)</text><text x="24.048" y="1.67" class="f">-</text><text x="26.052" y="1.67" class="f">02h16</text><text x="62.124" y="1.67" class="f">│</text><text x="64.128" y="1.67" class="f">4.5*</text><text x="69.138" y="1.67" class="f">│</text><text x="77.154" y="1.67" class="f">│</text><text x="85.17" y="1.67" class="f">│</text><text x="87.174" y="1.67" class="f">22:15</text><text x="93.186" y="1.67" class="f">│</text></symbol><symbol id="6"><text y="1.67" class="f">│</text><text x="2.004" y="1.67" class="f">Aquaman</text><text x="10.02" y="1.67" class="f">(VF</text><text x="14.028" y="1.67" class="f">3D,</text><text x="18.036" y="1.67" class="f">Salle</text><text x="24.048" y="1.67" class="f">4DX)</text><text x="29.058" y="1.67" class="f">-</text><text x="31.062" y="1.67" class="f">02h24</text><text x="62.124" y="1.67" class="f">│</text><text x="64.128" y="1.67" class="f">4.0*</text><text x="69.138" y="1.67" class="f">│</text><text x="77.154" y="1.67" class="f">│</text><text x="85.17" y="1.67" class="f">│</text><text x="87.174" y="1.67" class="f">22:00</text><text x="93.186" y="1.67" class="f">│</text></symbol><symbol id="7"><text y="1.67" class="f">│</text><text x="2.004" y="1.67" class="f">Aquaman</text><text x="10.02" y="1.67" class="f">(VF)</text><text x="15.03" y="1.67" class="f">-</text><text x="17.034" y="1.67" class="f">02h24</text><text x="62.124" y="1.67" class="f">│</text><text x="64.128" y="1.67" class="f">4.0*</text><text x="69.138" y="1.67" class="f">│</text><text x="77.154" y="1.67" class="f">│</text><text x="79.158" y="1.67" class="f">21:30</text><text x="85.17" y="1.67" class="f">│</text><text x="93.186" y="1.67" class="f">│</text></symbol><symbol id="8"><text y="1.67" class="f">│</text><text x="2.004" y="1.67" class="f">Astérix</text><text x="10.02" y="1.67" class="f">-</text><text x="12.024" y="1.67" class="f">Le</text><text x="15.03" y="1.67" class="f">Secret</text><text x="22.044" y="1.67" class="f">de</text><text x="25.05" y="1.67" class="f">la</text><text x="28.056" y="1.67" class="f">Potion</text><text x="35.07" y="1.67" class="f">Magique...</text><text x="46.092" y="1.67" class="f">(VF</text><text x="50.1" y="1.67" class="f">3D)</text><text x="54.108" y="1.67" class="f">-</text><text x="56.112" y="1.67" class="f">01h25</text><text x="62.124" y="1.67" class="f">│</text><text x="64.128" y="1.67" class="f">4.1*</text><text x="69.138" y="1.67" class="f">│</text><text x="77.154" y="1.67" class="f">│</text><text x="85.17" y="1.67" class="f">│</text><text x="87.174" y="1.67" class="f">22:15</text><text x="93.186" y="1.67" class="f">│</text></symbol><symbol id="9"><text y="1.67" class="f">│</text><text x="2.004" y="1.67" class="f">Bohemian</text><text x="11.022" y="1.67" class="f">Rhapsody</text><text x="20.04" y="1.67" class="f">(VF)</text><text x="25.05" y="1.67" class="f">-</text><text x="27.054" y="1.67" class="f">02h15</text><text x="62.124" y="1.67" class="f">│</text><text x="64.128" y="1.67" class="f">4.7*</text><text x="69.138" y="1.67" class="f">│</text><text x="77.154" y="1.67" class="f">│</text><text x="79.158" y="1.67" class="f">21:35</text><text x="85.17" y="1.67" class="f">│</text><text x="93.186" y="1.67" class="f">│</text></symbol><symbol id="10"><text y="1.67" class="f">│</text><text x="2.004" y="1.67" class="f">Bumblebee</text><text x="12.024" y="1.67" class="f">(VF</text><text x="16.032" y="1.67" class="f">IMAX</text><text x="21.042" y="1.67" class="f">3D)</text><text x="25.05" y="1.67" class="f">-</text><text x="27.054" y="1.67" class="f">01h54</text><text x="62.124" y="1.67" class="f">│</text><text x="64.128" y="1.67" class="f">3.8*</text><text x="69.138" y="1.67" class="f">│</text><text x="77.154" y="1.67" class="f">│</text><text x="79.158" y="1.67" class="f">21:50</text><text x="85.17" y="1.67" class="f">│</text><text x="93.186" y="1.67" class="f">│</text></symbol><symbol id="11"><text y="1.67" class="f">│</text><text x="2.004" y="1.67" class="f">Bumblebee</text><text x="12.024" y="1.67" class="f">(VF)</text><text x="17.034" y="1.67" class="f">-</text><text x="19.038" y="1.67" class="f">01h54</text><text x="62.124" y="1.67" class="f">│</text><text x="64.128" y="1.67" class="f">3.8*</text><text x="69.138" y="1.67" class="f">│</text><text x="77.154" y="1.67" class="f">│</text><text x="85.17" y="1.67" class="f">│</text><text x="87.174" y="1.67" class="f">22:30</text><text x="93.186" y="1.67" class="f">│</text></symbol><symbol id="12"><text y="1.67" class="f">│</text><text x="2.004" y="1.67" class="f">En</text><text x="5.01" y="1.67" class="f">liberté</text><text x="13.026" y="1.67" class="f">!</text><text x="15.03" y="1.67" class="f">(VF)</text><text x="20.04" y="1.67" class="f">-</text><text x="22.044" y="1.67" class="f">01h48</text><text x="62.124" y="1.67" class="f">│</text><text x="64.128" y="1.67" class="f">3.2*</text><text x="69.138" y="1.67" class="f">│</text><text x="77.154" y="1.67" class="f">│</text><text x="85.17" y="1.67" class="f">│</text><text x="87.174" y="1.67" class="f">22:25</text><text x="93.186" y="1.67" class="f">│</text></symbol><symbol id="13"><text y="1.67" class="f">│</text><text x="2.004" y="1.67" class="f">L&apos;Empereur</text><text x="13.026" y="1.67" class="f">de</text><text x="16.032" y="1.67" class="f">Paris</text><text x="22.044" y="1.67" class="f">(VF)</text><text x="27.054" y="1.67" class="f">-</text><text x="29.058" y="1.67" class="f">01h50</text><text x="62.124" y="1.67" class="f">│</text><text x="64.128" y="1.67" class="f">3.4*</text><text x="69.138" y="1.67" class="f">│</text><text x="77.154" y="1.67" class="f">│</text><text x="85.17" y="1.67" class="f">│</text><text x="87.174" y="1.67" class="f">22:30</text><text x="93.186" y="1.67" class="f">│</text></symbol><symbol id="14"><text y="1.67" class="f">│</text><text x="2.004" y="1.67" class="f">L&apos;Exorcisme</text><text x="14.028" y="1.67" class="f">de</text><text x="17.034" y="1.67" class="f">Hannah</text><text x="24.048" y="1.67" class="f">Grace</text><text x="30.06" y="1.67" class="f">(VF)</text><text x="35.07" y="1.67" class="f">-</text><text x="37.074" y="1.67" class="f">01h25</text><text x="62.124" y="1.67" class="f">│</text><text x="64.128" y="1.67" class="f">2.4*</text><text x="69.138" y="1.67" class="f">│</text><text x="77.154" y="1.67" class="f">│</text><text x="85.17" y="1.67" class="f">│</text><text x="87.174" y="1.67" class="f">22:45</text><text x="93.186" y="1.67" class="f">│</text></symbol><symbol id="15"><text y="1.67" class="f">│</text><text x="2.004" y="1.67" class="f">Le</text><text x="5.01" y="1.67" class="f">Gendre</text><text x="12.024" y="1.67" class="f">de</text><text x="15.03" y="1.67" class="f">ma</text><text x="18.036" y="1.67" class="f">vie</text><text x="22.044" y="1.67" class="f">(VF)</text><text x="27.054" y="1.67" class="f">-</text><text x="29.058" y="1.67" class="f">01h40</text><text x="62.124" y="1.67" class="f">│</text><text x="64.128" y="1.67" class="f">2.4*</text><text x="69.138" y="1.67" class="f">│</text><text x="77.154" y="1.67" class="f">│</text><text x="85.17" y="1.67" class="f">│</text><text x="87.174" y="1.67" class="f">22:30</text><text x="93.186" y="1.67" class="f">│</text></symbol><symbol id="16"><text y="1.67" class="f">│</text><text x="2.004" y="1.67" class="f">Le</text><text x="5.01" y="1.67" class="f">Grand</text><text x="11.022" y="1.67" class="f">Bain</text><text x="16.032" y="1.67" class="f">(VF)</text><text x="21.042" y="1.67" class="f">-</text><text x="23.046" y="1.67" class="f">01h58</text><text x="62.124" y="1.67" class="f">│</text><text x="64.128" y="1.67" class="f">4.0*</text><text x="69.138" y="1.67" class="f">│</text><text x="77.154" y="1.67" class="f">│</text><text x="79.158" y="1.67" class="f">21:45</text><text x="85.17" y="1.67" class="f">│</text><text x="93.186" y="1.67" class="f">│</text></symbol><symbol id="17"><text y="1.67" class="f">│</text><text x="2.004" y="1.67" class="f">Le</text><text x="5.01" y="1.67" class="f">Retour</text><text x="12.024" y="1.67" class="f">de</text><text x="15.03" y="1.67" class="f">Mary</text><text x="20.04" y="1.67" class="f">Poppins</text><text x="28.056" y="1.67" class="f">(VF)</text><text x="33.066" y="1.67" class="f">-</text><text x="35.07" y="1.67" class="f">02h11</text><text x="62.124" y="1.67" class="f">│</text><text x="64.128" y="1.67" class="f">3.5*</text><text x="69.138" y="1.67" class="f">│</text><text x="77.154" y="1.67" class="f">│</text><text x="79.158" y="1.67" class="f">21:45</text><text x="85.17" y="1.67" class="f">│</text><text x="93.186" y="1.67" class="f">│</text></symbol><symbol id="18"><text y="1.67" class="f">│</text><text x="2.004" y="1.67" class="f">Mia</text><text x="6.012" y="1.67" class="f">et</text><text x="9.018" y="1.67" class="f">le</text><text x="12.024" y="1.67" class="f">Lion</text><text x="17.034" y="1.67" class="f">Blanc</text><text x="23.046" y="1.67" class="f">(VF)</text><text x="28.056" y="1.67" class="f">-</text><text x="30.06" y="1.67" class="f">01h37</text><text x="62.124" y="1.67" class="f">│</text><text x="64.128" y="1.67" class="f">4.0*</text><text x="69.138" y="1.67" class="f">│</text><text x="71.142" y="1.67" class="f">20:25</text><text x="77.154" y="1.67" class="f">│</text><text x="85.17" y="1.67" class="f">│</text><text x="93.186" y="1.67" class="f">│</text></symbol><symbol id="19"><text y="1.67" class="f">│</text><text x="2.004" y="1.67" class="f">Mortal</text><text x="9.018" y="1.67" class="f">Engines</text><text x="17.034" y="1.67" class="f">(VF)</text><text x="22.044" y="1.67" class="f">-</text><text x="24.048" y="1.67" class="f">02h08</text><text x="62.124" y="1.67" class="f">│</text><text x="64.128" y="1.67" class="f">3.4*</text><text x="69.138" y="1.67" class="f">│</text><text x="77.154" y="1.67" class="f">│</text><text x="85.17" y="1.67" class="f">│</text><text x="87.174" y="1.67" class="f">22:00</text><text x="93.186" y="1.67" class="f">│</text></symbol><symbol id="20"><text y="1.67" class="f">│</text><text x="2.004" y="1.67" class="f">Seconde</text><text x="10.02" y="1.67" class="f">chance</text><text x="17.034" y="1.67" class="f">(VF)</text><text x="22.044" y="1.67" class="f">-</text><text x="24.048" y="1.67" class="f">01h44</text><text x="62.124" y="1.67" class="f">│</text><text x="64.128" y="1.67" class="f">3.2*</text><text x="69.138" y="1.67" class="f">│</text><text x="71.142" y="1.67" class="f">20:25</text><text x="77.154" y="1.67" class="f">│</text><text x="85.17" y="1.67" class="f">│</text><text x="87.174" y="1.67" class="f">22:45</text><text x="93.186" y="1.67" class="f">│</text></symbol><symbol id="21"><text y="1.67" class="f">│</text><text x="2.004" y="1.67" class="f">Unfriended:</text><text x="14.028" y="1.67" class="f">Dark</text><text x="19.038" y="1.67" class="f">Web</text><text x="23.046" y="1.67" class="f">(VF)</text><text x="28.056" y="1.67" class="f">-</text><text x="30.06" y="1.67" class="f">01h28</text><text x="62.124" y="1.67" class="f">│</text><text x="64.128" y="1.67" class="f">3.3*</text><text x="69.138" y="1.67" class="f">│</text><text x="71.142" y="1.67" class="f">20:35</text><text x="77.154" y="1.67" class="f">│</text><text x="85.17" y="1.67" class="f">│</text><text x="87.174" y="1.67" class="f">22:45</text><text x="93.186" y="1.67" class="f">│</text></symbol><symbol id="22"><text y="1.67" class="f">└─────────────────────────────────────────────────────────────┴──────┴───────┴───────┴───────┘</text></symbol><symbol id="a"><path fill="transparent" d="M0 0h106v34H0z"/></symbol></defs><path class="a" d="M0 0h106v73.814H0z"/><g style="animation-duration:14.902678s;animation-iteration-count:infinite;animation-name:h;animation-timing-function:steps(1,end)"><svg width="3498"><svg><use xlink:href="#a"/><text y="1.67" class="f">bash-3.2$</text><text x="10.02" y="1.67" class="f">python</text><text x="17.034" y="1.67" class="f">all</text></svg><svg x="106"><use xlink:href="#a"/><text y="1.67" class="f">bash-3.2$</text><text x="10.02" y="1.67" class="f">python</text><text x="17.034" y="1.67" class="f">allo</text></svg><svg x="212"><use xlink:href="#a"/><text y="1.67" class="f">bash-3.2$</text><text x="10.02" y="1.67" class="f">python</text><text x="17.034" y="1.67" class="f">alloc</text></svg><svg x="318"><use xlink:href="#a"/><text y="1.67" class="f">bash-3.2$</text><text x="10.02" y="1.67" class="f">python</text><text x="17.034" y="1.67" class="f">alloci</text></svg><svg x="424"><use xlink:href="#a"/><text y="1.67" class="f">bash-3.2$</text><text x="10.02" y="1.67" class="f">python</text><text x="17.034" y="1.67" class="f">allocin</text></svg><svg x="530"><use xlink:href="#a"/><text y="1.67" class="f">bash-3.2$</text><text x="10.02" y="1.67" class="f">python</text><text x="17.034" y="1.67" class="f">allocine</text></svg><svg x="636"><use xlink:href="#a"/><text y="1.67" class="f">bash-3.2$</text><text x="10.02" y="1.67" class="f">python</text><text x="17.034" y="1.67" class="f">allocine_</text></svg><svg x="742"><use xlink:href="#a"/><text y="1.67" class="f">bash-3.2$</text><text x="10.02" y="1.67" class="f">python</text><text x="17.034" y="1.67" class="f">allocine_c</text></svg><svg x="848"><use xlink:href="#a"/><text y="1.67" class="f">bash-3.2$</text><text x="10.02" y="1.67" class="f">python</text><text x="17.034" y="1.67" class="f">allocine_cli.py</text></svg><svg x="954"><use xlink:href="#a"/><text y="1.67" class="f">bash-3.2$</text><text x="10.02" y="1.67" class="f">python</text><text x="17.034" y="1.67" class="f">allocine_cli.py</text><text x="33.066" y="1.67" class="f">-</text></svg><svg x="1060"><use xlink:href="#a"/><text y="1.67" class="f">bash-3.2$</text><text x="10.02" y="1.67" class="f">python</text><text x="17.034" y="1.67" class="f">allocine_cli.py</text><text x="33.066" y="1.67" class="f">--</text></svg><svg x="1166"><use xlink:href="#a"/><text y="1.67" class="f">bash-3.2$</text><text x="10.02" y="1.67" class="f">python</text><text x="17.034" y="1.67" class="f">allocine_cli.py</text><text x="33.066" y="1.67" class="f">--i</text></svg><svg x="1272"><use xlink:href="#a"/><text y="1.67" class="f">bash-3.2$</text><text x="10.02" y="1.67" class="f">python</text><text x="17.034" y="1.67" class="f">allocine_cli.py</text><text x="33.066" y="1.67" class="f">--id</text></svg><svg x="1378"><use xlink:href="#a"/><text y="1.67" class="f">bash-3.2$</text><text x="10.02" y="1.67" class="f">python</text><text x="17.034" y="1.67" class="f">allocine_cli.py</text><text x="33.066" y="1.67" class="f">--id-</text></svg><svg x="1484"><use xlink:href="#a"/><text y="1.67" class="f">bash-3.2$</text><text x="10.02" y="1.67" class="f">python</text><text x="17.034" y="1.67" class="f">allocine_cli.py</text><text x="33.066" y="1.67" class="f">--id-c</text></svg><svg x="1590"><use xlink:href="#a"/><text y="1.67" class="f">bash-3.2$</text><text x="10.02" y="1.67" class="f">python</text><text x="17.034" y="1.67" class="f">allocine_cli.py</text><text x="33.066" y="1.67" class="f">--id-ci</text></svg><svg x="1696"><use xlink:href="#a"/><text y="1.67" class="f">bash-3.2$</text><text x="10.02" y="1.67" class="f">python</text><text x="17.034" y="1.67" class="f">allocine_cli.py</text><text x="33.066" y="1.67" class="f">--id-cin</text></svg><svg x="1802"><use xlink:href="#a"/><text y="1.67" class="f">bash-3.2$</text><text x="10.02" y="1.67" class="f">python</text><text x="17.034" y="1.67" class="f">allocine_cli.py</text><text x="33.066" y="1.67" class="f">--id-cine</text></svg><svg x="1908"><use xlink:href="#a"/><text y="1.67" class="f">bash-3.2$</text><text x="10.02" y="1.67" class="f">python</text><text x="17.034" y="1.67" class="f">allocine_cli.py</text><text x="33.066" y="1.67" class="f">--id-cinem</text></svg><svg x="2014"><use xlink:href="#a"/><use xlink:href="#1"/></svg><svg x="2120"><use xlink:href="#a"/><use xlink:href="#1"/></svg><svg x="2226"><use xlink:href="#a"/><text y="1.67" class="f">bash-3.2$</text><text x="10.02" y="1.67" class="f">python</text><text x="17.034" y="1.67" class="f">allocine_cli.py</text><text x="33.066" y="1.67" class="f">--id-cinema</text><text x="45.09" y="1.67" class="f">P</text></svg><svg x="2332"><use xlink:href="#a"/><text y="1.67" class="f">bash-3.2$</text><text x="10.02" y="1.67" class="f">python</text><text x="17.034" y="1.67" class="f">allocine_cli.py</text><text x="33.066" y="1.67" class="f">--id-cinema</text><text x="45.09" y="1.67" class="f">P0</text></svg><svg x="2438"><use xlink:href="#a"/><text y="1.67" class="f">bash-3.2$</text><text x="10.02" y="1.67" class="f">python</text><text x="17.034" y="1.67" class="f">allocine_cli.py</text><text x="33.066" y="1.67" class="f">--id-cinema</text><text x="45.09" y="1.67" class="f">P06</text></svg><svg x="2544"><use xlink:href="#a"/><text y="1.67" class="f">bash-3.2$</text><text x="10.02" y="1.67" class="f">python</text><text x="17.034" y="1.67" class="f">allocine_cli.py</text><text x="33.066" y="1.67" class="f">--id-cinema</text><text x="45.09" y="1.67" class="f">P064</text></svg><svg x="2650"><use xlink:href="#a"/><use xlink:href="#2"/></svg><svg x="2756"><use xlink:href="#a"/><use xlink:href="#2"/></svg><svg x="2862"><use xlink:href="#a"/><use xlink:href="#2"/></svg><svg x="2968"><use xlink:href="#a"/><use xlink:href="#2"/><use xlink:href="#3" y="4.342"/><use xlink:href="#4" y="6.513"/><use xlink:href="#5" y="8.684"/><use xlink:href="#6" y="10.855"/><use xlink:href="#7" y="13.026"/><use xlink:href="#8" y="15.197"/><use xlink:href="#9" y="17.368"/><use xlink:href="#10" y="19.539"/><text y="23.38" class="f">│</text><text x="2.004" y="23.38" class="f">Bumblebee</text><text x="12.024" y="23.38" class="f">(VF)</text><text x="17.034" y="23.38" class="f">-</text><text x="19.038" y="23.38" class="f">01h54</text></svg><svg x="3074"><use xlink:href="#a"/><use xlink:href="#2"/><use xlink:href="#3" y="4.342"/><use xlink:href="#4" y="6.513"/><use xlink:href="#5" y="8.684"/><use xlink:href="#6" y="10.855"/><use xlink:href="#7" y="13.026"/><use xlink:href="#8" y="15.197"/><use xlink:href="#9" y="17.368"/><use xlink:href="#10" y="19.539"/><use xlink:href="#11" y="21.71"/><use xlink:href="#12" y="23.881"/><use xlink:href="#13" y="26.052"/><use xlink:href="#14" y="28.223"/><use xlink:href="#15" y="30.394"/><use xlink:href="#16" y="32.565"/><use xlink:href="#17" y="34.736"/><use xlink:href="#18" y="36.907"/><use xlink:href="#19" y="39.078"/><text y="42.919" class="f">│</text><text x="2.004" y="42.919" class="f">Seconde</text><text x="10.02" y="42.919" class="f">chance</text><text x="17.034" y="42.919" class="f">(VF)</text><text x="22.044" y="42.919" class="f">-</text><text x="24.048" y="42.919" class="f">01h44</text><text x="62.124" y="42.919" class="f">│</text><text x="64.128" y="42.919" class="f">3.2*</text><text x="69.138" y="42.919" class="f">│</text><text x="71.142" y="42.919" class="f">20:25</text><text x="77.154" y="42.919" class="f">│</text><text x="85.17" y="42.919" class="f">│</text></svg><svg x="3180"><use xlink:href="#a"/><use xlink:href="#2"/><use xlink:href="#3" y="4.342"/><use xlink:href="#4" y="6.513"/><use xlink:href="#5" y="8.684"/><use xlink:href="#6" y="10.855"/><use xlink:href="#7" y="13.026"/><use xlink:href="#8" y="15.197"/><use xlink:href="#9" y="17.368"/><use xlink:href="#10" y="19.539"/><use xlink:href="#11" y="21.71"/><use xlink:href="#12" y="23.881"/><use xlink:href="#13" y="26.052"/><use xlink:href="#14" y="28.223"/><use xlink:href="#15" y="30.394"/><use xlink:href="#16" y="32.565"/><use xlink:href="#17" y="34.736"/><use xlink:href="#18" y="36.907"/><use xlink:href="#19" y="39.078"/><use xlink:href="#20" y="41.249"/><use xlink:href="#21" y="43.42"/><use xlink:href="#22" y="45.591"/></svg><svg x="3286"><use xlink:href="#a"/><use xlink:href="#2"/><use xlink:href="#3" y="4.342"/><use xlink:href="#4" y="6.513"/><use xlink:href="#5" y="8.684"/><use xlink:href="#6" y="10.855"/><use xlink:href="#7" y="13.026"/><use xlink:href="#8" y="15.197"/><use xlink:href="#9" y="17.368"/><use xlink:href="#10" y="19.539"/><use xlink:href="#11" y="21.71"/><use xlink:href="#12" y="23.881"/><use xlink:href="#13" y="26.052"/><use xlink:href="#14" y="28.223"/><use xlink:href="#15" y="30.394"/><use xlink:href="#16" y="32.565"/><use xlink:href="#17" y="34.736"/><use xlink:href="#18" y="36.907"/><use xlink:href="#19" y="39.078"/><use xlink:href="#20" y="41.249"/><use xlink:href="#21" y="43.42"/><use xlink:href="#22" y="45.591"/><text y="49.432" class="f">bash-3.2$</text></svg><svg x="3392"><use xlink:href="#a"/><use xlink:href="#2"/><use xlink:href="#3" y="4.342"/><use xlink:href="#4" y="6.513"/><use xlink:href="#5" y="8.684"/><use xlink:href="#6" y="10.855"/><use xlink:href="#7" y="13.026"/><use xlink:href="#8" y="15.197"/><use xlink:href="#9" y="17.368"/><use xlink:href="#10" y="19.539"/><use xlink:href="#11" y="21.71"/><use xlink:href="#12" y="23.881"/><use xlink:href="#13" y="26.052"/><use xlink:href="#14" y="28.223"/><use xlink:href="#15" y="30.394"/><use xlink:href="#16" y="32.565"/><use xlink:href="#17" y="34.736"/><use xlink:href="#18" y="36.907"/><use xlink:href="#19" y="39.078"/><use xlink:href="#20" y="41.249"/><use xlink:href="#21" y="43.42"/><use xlink:href="#22" y="45.591"/><text y="49.432" class="f">bash-3.2$</text><text x="10.02" y="49.432" class="f">exit</text></svg></svg></g></g></svg></svg>